<svg height="511pt" viewBox="1 0 511.9995 511" width="511pt" xmlns="http://www.w3.org/2000/svg"><path d="m225.765625 307.730469-40.792969 41.09375c-3 2.996093-6.898437 4.5-10.796875 4.5-3.902343 0-7.5-1.5-10.5-4.5-6-5.699219-6-15.300781 0-21.300781l41.09375-40.792969c5.699219-6 15.296875-6 20.996094 0 6 5.699219 6 15.300781 0 21zm0 0" fill="#3e5959"/><path d="m225.765625 307.730469-40.792969 41.09375c-3 2.996093-6.898437 4.5-10.796875 4.5-3.902343 0-7.5-1.5-10.5-4.5l62.089844-62.09375c6 5.699219 6 15.300781 0 21zm0 0" fill="#293939"/><path d="m459.132812 53.367188c-70.488281-70.488282-184.175781-70.488282-254.363281 0-70.488281 70.488281-70.488281 184.171874 0 254.363281 70.488281 70.488281 184.171875 70.488281 254.363281 0 70.488282-70.488281 70.488282-184.175781 0-254.363281zm0 0" fill="#4a696f"/><path d="m205.96875 370.121094-31.792969 31.792968-42.59375-20.996093-16.796875-8.398438-4.199218-34.195312 31.792968-31.792969c6-6 15.296875-6 21.296875 0l42.292969 42.292969c6 5.996093 6 15.296875 0 21.296875zm0 0" fill="#deecf1"/><path d="m205.96875 348.824219c6 5.996093 6 15.296875 0 21.296875l-31.792969 31.792968-42.59375-20.996093 53.390625-53.09375zm0 0" fill="#a8d3d8"/><path d="m459.132812 307.730469c-70.191406 70.488281-183.875 70.488281-254.363281 0l254.363281-254.363281c70.488282 70.1875 70.488282 183.875 0 254.363281zm0 0" fill="#3e5959"/><path d="m437.835938 74.664062c-58.492188-58.789062-153.277344-58.789062-211.769532 0-58.792968 58.492188-58.792968 153.277344 0 211.769532 58.488282 58.789062 153.277344 58.789062 211.769532 0 58.789062-58.492188 58.789062-153.277344 0-211.769532zm0 0" fill="#deecf1"/><path d="m437.835938 286.433594c-58.492188 58.789062-153.277344 58.789062-211.769532 0l211.769532-211.769532c58.789062 58.492188 58.789062 153.277344 0 211.769532zm0 0" fill="#c6e2e7"/><path d="m174.175781 401.914062-97.3125 97.425782c-17.398437 17.695312-46.191406 17.398437-63.589843 0-17.699219-17.398438-17.699219-46.195313 0-63.59375l97.308593-97.421875zm0 0" fill="#979fef"/><path d="m142.378906 370.121094 31.796875 31.792968-97.3125 97.425782c-17.398437 17.695312-46.191406 17.398437-63.589843 0zm0 0" fill="#6b77e8"/></svg>